<svg xmlns="http://www.w3.org/2000/svg" width="960" height="540" viewBox="0 0 960 540" role="img" aria-labelledby="title desc">
  <title id="title">Foundry playground verification view</title>
  <desc id="desc">Illustration of the Azure AI Foundry project showing the WWISalesAgent, playground prompt, tool calls, and traces.</desc>
  <rect width="960" height="540" fill="#f6f8fb"/>
  <rect x="32" y="32" width="896" height="476" rx="18" fill="#ffffff" stroke="#ccd6e0"/>
  <rect x="32" y="32" width="896" height="58" rx="18" fill="#17223b"/>
  <text x="64" y="69" fill="#ffffff" font-family="Segoe UI, Arial" font-size="22" font-weight="700">Microsoft Foundry - fsa-foundry-project-dev</text>
  <rect x="64" y="120" width="210" height="338" rx="12" fill="#eef4ff" stroke="#bdd2ff"/>
  <text x="88" y="156" fill="#1f2937" font-family="Segoe UI, Arial" font-size="18" font-weight="700">Agents</text>
  <rect x="88" y="182" width="162" height="44" rx="8" fill="#2563eb"/>
  <text x="105" y="210" fill="#ffffff" font-family="Segoe UI, Arial" font-size="15" font-weight="700">WWISalesAgent</text>
  <text x="88" y="263" fill="#374151" font-family="Segoe UI, Arial" font-size="14">Verified live: 2026-06-15</text>
  <text x="88" y="292" fill="#374151" font-family="Segoe UI, Arial" font-size="14">Agent version: 5</text>
  <text x="88" y="316" fill="#374151" font-family="Segoe UI, Arial" font-size="14">Tools: Fabric, Databricks,</text>
  <text x="88" y="340" fill="#374151" font-family="Segoe UI, Arial" font-size="14">WorkIQ, reports, research</text>
  <rect x="306" y="120" width="560" height="160" rx="12" fill="#f8fafc" stroke="#d5dce6"/>
  <text x="330" y="154" fill="#111827" font-family="Segoe UI, Arial" font-size="18" font-weight="700">Playground prompt</text>
  <rect x="330" y="176" width="500" height="50" rx="8" fill="#ffffff" stroke="#ccd6e0"/>
  <text x="348" y="207" fill="#374151" font-family="Segoe UI, Arial" font-size="15">Generate a quota report for Tailspin Toys</text>
  <rect x="330" y="238" width="145" height="28" rx="14" fill="#16a34a"/>
  <text x="355" y="257" fill="#ffffff" font-family="Segoe UI, Arial" font-size="13" font-weight="700">Response OK</text>
  <rect x="306" y="304" width="260" height="154" rx="12" fill="#fff7ed" stroke="#fed7aa"/>
  <text x="330" y="338" fill="#111827" font-family="Segoe UI, Arial" font-size="18" font-weight="700">Tool calls</text>
  <text x="330" y="372" fill="#374151" font-family="Segoe UI, Arial" font-size="14">databricks_query or fabric_query</text>
  <text x="330" y="399" fill="#374151" font-family="Segoe UI, Arial" font-size="14">generate_quota_estimation_report</text>
  <text x="330" y="426" fill="#374151" font-family="Segoe UI, Arial" font-size="14">get_account_activity</text>
  <rect x="606" y="304" width="260" height="154" rx="12" fill="#ecfdf5" stroke="#bbf7d0"/>
  <text x="630" y="338" fill="#111827" font-family="Segoe UI, Arial" font-size="18" font-weight="700">Trace checkpoint</text>
  <text x="630" y="372" fill="#374151" font-family="Segoe UI, Arial" font-size="14">Latency and tool status visible</text>
  <text x="630" y="399" fill="#374151" font-family="Segoe UI, Arial" font-size="14">No payloads logged in traces</text>
  <text x="630" y="426" fill="#374151" font-family="Segoe UI, Arial" font-size="14">Artifacts counted for demo proof</text>
</svg>
